<svg xmlns="http://www.w3.org/2000/svg" xmlns:xlink="http://www.w3.org/1999/xlink" width="500" zoomAndPan="magnify" viewBox="0 0 375 374.999991" height="500" preserveAspectRatio="xMidYMid meet" version="1.0"><defs><g/><clipPath id="e76fd13b63"><path d="M 139.917969 126 L 235.167969 126 L 235.167969 180 L 139.917969 180 Z M 139.917969 126 " clip-rule="nonzero"/></clipPath><clipPath id="5434d3bd58"><path d="M 160 105.828125 L 215 105.828125 L 215 204 L 160 204 Z M 160 105.828125 " clip-rule="nonzero"/></clipPath></defs><rect x="-37.5" width="450" fill="#ffffff" y="-37.499999" height="449.999989" fill-opacity="1"/><rect x="-37.5" width="450" fill="#ffffff" y="-37.499999" height="449.999989" fill-opacity="1"/><g fill="#5e17eb" fill-opacity="1"><g transform="translate(61.675709, 244.898377)"><g><path d="M 20.640625 0 L 20.609375 -12.046875 L 14.703125 -2.125 L 12.609375 -2.125 L 6.734375 -11.78125 L 6.734375 0 L 2.375 0 L 2.375 -20.078125 L 6.21875 -20.078125 L 13.734375 -7.59375 L 21.125 -20.078125 L 24.9375 -20.078125 L 25 0 Z M 20.640625 0 "/></g></g></g><g fill="#5e17eb" fill-opacity="1"><g transform="translate(97.651285, 244.898377)"><g><path d="M 12.09375 0.34375 C 10.007812 0.34375 8.128906 -0.101562 6.453125 -1 C 4.785156 -1.894531 3.476562 -3.128906 2.53125 -4.703125 C 1.59375 -6.285156 1.125 -8.0625 1.125 -10.03125 C 1.125 -12 1.59375 -13.769531 2.53125 -15.34375 C 3.476562 -16.925781 4.785156 -18.164062 6.453125 -19.0625 C 8.128906 -19.96875 10.007812 -20.421875 12.09375 -20.421875 C 14.175781 -20.421875 16.050781 -19.96875 17.71875 -19.0625 C 19.382812 -18.164062 20.691406 -16.925781 21.640625 -15.34375 C 22.597656 -13.769531 23.078125 -12 23.078125 -10.03125 C 23.078125 -8.0625 22.597656 -6.285156 21.640625 -4.703125 C 20.691406 -3.128906 19.382812 -1.894531 17.71875 -1 C 16.050781 -0.101562 14.175781 0.34375 12.09375 0.34375 Z M 12.09375 -3.609375 C 13.28125 -3.609375 14.351562 -3.878906 15.3125 -4.421875 C 16.269531 -4.972656 17.019531 -5.734375 17.5625 -6.703125 C 18.101562 -7.679688 18.375 -8.789062 18.375 -10.03125 C 18.375 -11.28125 18.101562 -12.390625 17.5625 -13.359375 C 17.019531 -14.335938 16.269531 -15.097656 15.3125 -15.640625 C 14.351562 -16.179688 13.28125 -16.453125 12.09375 -16.453125 C 10.914062 -16.453125 9.847656 -16.179688 8.890625 -15.640625 C 7.929688 -15.097656 7.179688 -14.335938 6.640625 -13.359375 C 6.097656 -12.390625 5.828125 -11.28125 5.828125 -10.03125 C 5.828125 -8.789062 6.097656 -7.679688 6.640625 -6.703125 C 7.179688 -5.734375 7.929688 -4.972656 8.890625 -4.421875 C 9.847656 -3.878906 10.914062 -3.609375 12.09375 -3.609375 Z M 12.09375 -3.609375 "/></g></g></g><g fill="#5e17eb" fill-opacity="1"><g transform="translate(130.445152, 244.898377)"><g><path d="M 20.78125 -20.078125 L 20.78125 0 L 16.96875 0 L 6.96875 -12.1875 L 6.96875 0 L 2.375 0 L 2.375 -20.078125 L 6.21875 -20.078125 L 16.203125 -7.890625 L 16.203125 -20.078125 Z M 20.78125 -20.078125 "/></g></g></g><g fill="#5e17eb" fill-opacity="1"><g transform="translate(162.207117, 244.898377)"><g><path d="M 12.09375 0.34375 C 10.007812 0.34375 8.128906 -0.101562 6.453125 -1 C 4.785156 -1.894531 3.476562 -3.128906 2.53125 -4.703125 C 1.59375 -6.285156 1.125 -8.0625 1.125 -10.03125 C 1.125 -12 1.59375 -13.769531 2.53125 -15.34375 C 3.476562 -16.925781 4.785156 -18.164062 6.453125 -19.0625 C 8.128906 -19.96875 10.007812 -20.421875 12.09375 -20.421875 C 14.175781 -20.421875 16.050781 -19.96875 17.71875 -19.0625 C 19.382812 -18.164062 20.691406 -16.925781 21.640625 -15.34375 C 22.597656 -13.769531 23.078125 -12 23.078125 -10.03125 C 23.078125 -8.0625 22.597656 -6.285156 21.640625 -4.703125 C 20.691406 -3.128906 19.382812 -1.894531 17.71875 -1 C 16.050781 -0.101562 14.175781 0.34375 12.09375 0.34375 Z M 12.09375 -3.609375 C 13.28125 -3.609375 14.351562 -3.878906 15.3125 -4.421875 C 16.269531 -4.972656 17.019531 -5.734375 17.5625 -6.703125 C 18.101562 -7.679688 18.375 -8.789062 18.375 -10.03125 C 18.375 -11.28125 18.101562 -12.390625 17.5625 -13.359375 C 17.019531 -14.335938 16.269531 -15.097656 15.3125 -15.640625 C 14.351562 -16.179688 13.28125 -16.453125 12.09375 -16.453125 C 10.914062 -16.453125 9.847656 -16.179688 8.890625 -15.640625 C 7.929688 -15.097656 7.179688 -14.335938 6.640625 -13.359375 C 6.097656 -12.390625 5.828125 -11.28125 5.828125 -10.03125 C 5.828125 -8.789062 6.097656 -7.679688 6.640625 -6.703125 C 7.179688 -5.734375 7.929688 -4.972656 8.890625 -4.421875 C 9.847656 -3.878906 10.914062 -3.609375 12.09375 -3.609375 Z M 12.09375 -3.609375 "/></g></g></g><g fill="#5e17eb" fill-opacity="1"><g transform="translate(195.000984, 244.898377)"><g><path d="M 15.9375 -10.34375 L 20.1875 -10.34375 L 20.1875 -2.203125 C 19.09375 -1.378906 17.828125 -0.75 16.390625 -0.3125 C 14.960938 0.125 13.523438 0.34375 12.078125 0.34375 C 9.992188 0.34375 8.117188 -0.0976562 6.453125 -0.984375 C 4.785156 -1.878906 3.476562 -3.113281 2.53125 -4.6875 C 1.59375 -6.257812 1.125 -8.039062 1.125 -10.03125 C 1.125 -12.019531 1.59375 -13.800781 2.53125 -15.375 C 3.476562 -16.957031 4.789062 -18.191406 6.46875 -19.078125 C 8.15625 -19.972656 10.050781 -20.421875 12.15625 -20.421875 C 13.914062 -20.421875 15.507812 -20.125 16.9375 -19.53125 C 18.375 -18.9375 19.582031 -18.070312 20.5625 -16.9375 L 17.578125 -14.1875 C 16.140625 -15.695312 14.410156 -16.453125 12.390625 -16.453125 C 11.109375 -16.453125 9.96875 -16.1875 8.96875 -15.65625 C 7.976562 -15.125 7.207031 -14.367188 6.65625 -13.390625 C 6.101562 -12.410156 5.828125 -11.289062 5.828125 -10.03125 C 5.828125 -8.789062 6.101562 -7.679688 6.65625 -6.703125 C 7.207031 -5.734375 7.972656 -4.972656 8.953125 -4.421875 C 9.941406 -3.878906 11.066406 -3.609375 12.328125 -3.609375 C 13.671875 -3.609375 14.875 -3.894531 15.9375 -4.46875 Z M 15.9375 -10.34375 "/></g></g></g><g fill="#5e17eb" fill-opacity="1"><g transform="translate(225.702379, 244.898377)"><g><path d="M 15.171875 0 L 11.296875 -5.59375 L 7.03125 -5.59375 L 7.03125 0 L 2.375 0 L 2.375 -20.078125 L 11.0625 -20.078125 C 12.84375 -20.078125 14.382812 -19.78125 15.6875 -19.1875 C 17 -18.59375 18.007812 -17.75 18.71875 -16.65625 C 19.425781 -15.570312 19.78125 -14.28125 19.78125 -12.78125 C 19.78125 -11.289062 19.421875 -10.003906 18.703125 -8.921875 C 17.992188 -7.847656 16.976562 -7.023438 15.65625 -6.453125 L 20.15625 0 Z M 15.078125 -12.78125 C 15.078125 -13.914062 14.710938 -14.78125 13.984375 -15.375 C 13.265625 -15.976562 12.207031 -16.28125 10.8125 -16.28125 L 7.03125 -16.28125 L 7.03125 -9.296875 L 10.8125 -9.296875 C 12.207031 -9.296875 13.265625 -9.597656 13.984375 -10.203125 C 14.710938 -10.816406 15.078125 -11.675781 15.078125 -12.78125 Z M 15.078125 -12.78125 "/></g></g></g><g fill="#5e17eb" fill-opacity="1"><g transform="translate(255.371872, 244.898377)"><g><path d="M 15.59375 -4.296875 L 6.28125 -4.296875 L 4.5 0 L -0.265625 0 L 8.6875 -20.078125 L 13.28125 -20.078125 L 22.25 0 L 17.375 0 Z M 14.140625 -7.828125 L 10.953125 -15.515625 L 7.765625 -7.828125 Z M 14.140625 -7.828125 "/></g></g></g><g fill="#5e17eb" fill-opacity="1"><g transform="translate(285.929952, 244.898377)"><g><path d="M 20.640625 0 L 20.609375 -12.046875 L 14.703125 -2.125 L 12.609375 -2.125 L 6.734375 -11.78125 L 6.734375 0 L 2.375 0 L 2.375 -20.078125 L 6.21875 -20.078125 L 13.734375 -7.59375 L 21.125 -20.078125 L 24.9375 -20.078125 L 25 0 Z M 20.640625 0 "/></g></g></g><g clip-path="url(#e76fd13b63)"><path fill="#5e17eb" d="M 139.917969 179.117188 L 139.917969 126.664062 L 187.507812 151.910156 L 235.074219 126.664062 L 235.074219 179.117188 L 226.835938 179.117188 L 226.835938 140.257812 L 187.507812 161.148438 L 147.6875 140.257812 L 147.6875 179.117188 Z M 139.917969 179.117188 " fill-opacity="1" fill-rule="nonzero"/></g><g clip-path="url(#5434d3bd58)"><path fill="#5e17eb" d="M 164.203125 105.792969 L 214.695312 105.792969 L 214.695312 120.835938 L 206.4375 125.210938 L 206.4375 114.050781 L 168.558594 114.050781 L 168.558594 145.121094 L 160.320312 141.238281 L 160.320312 105.792969 Z M 168.558594 167.464844 L 168.558594 195.632812 L 206.4375 195.632812 L 206.4375 141.726562 L 214.695312 141.726562 L 214.695312 203.871094 L 160.320312 203.871094 L 160.320312 163.089844 Z M 168.558594 167.464844 " fill-opacity="1" fill-rule="nonzero"/></g></svg>
